<svg xmlns="http://www.w3.org/2000/svg" width="32" height="30.5" viewBox="0 0 32 30.5">
  <metadata><?xpacket begin="﻿" id="W5M0MpCehiHzreSzNTczkc9d"?>
<x:xmpmeta xmlns:x="adobe:ns:meta/" x:xmptk="Adobe XMP Core 5.6-c140 79.160451, 2017/05/06-01:08:21        ">
   <rdf:RDF xmlns:rdf="http://www.w3.org/1999/02/22-rdf-syntax-ns#">
      <rdf:Description rdf:about=""/>
   </rdf:RDF>
</x:xmpmeta>
                                                                                                    
                                                                                                    
                                                                                                    
                                                                                                    
                                                                                                    
                                                                                                    
                                                                                                    
                                                                                                    
                                                                                                    
                                                                                                    
                                                                                                    
                                                                                                    
                                                                                                    
                                                                                                    
                                                                                                    
                                                                                                    
                                                                                                    
                                                                                                    
                                                                                                    
                                                                                                    
                           
<?xpacket end="w"?></metadata>
<defs>
    <style>
      .cls-1 {
        fill: #95e1d3;
        fill-rule: evenodd;
      }
    </style>
  </defs>
  <path id="ALARM" class="cls-1" d="M420.74,396.5a15.719,15.719,0,0,0-8.243-8.243A5.869,5.869,0,0,1,420.74,396.5ZM420.5,403a14.433,14.433,0,0,1-3.963,9.941l2.029,2.027a1.484,1.484,0,0,1-2.1,2.1l-2.178-2.178a14.46,14.46,0,0,1-16.566.009l-2.163,2.164a1.5,1.5,0,0,1-2.122-2.121l2.012-2.012A14.494,14.494,0,1,1,420.5,403ZM406,391.5A11.5,11.5,0,1,0,417.5,403,11.5,11.5,0,0,0,406,391.5Zm6,13h-6a1.5,1.5,0,0,1-1.5-1.5v-8a1.5,1.5,0,0,1,3,0v6.5H412A1.5,1.5,0,0,1,412,404.5Zm-20.713-7.8a5.995,5.995,0,0,1,8.419-8.419A16.059,16.059,0,0,0,391.287,396.705Z" transform="translate(-390 -387)"/>
</svg>
