<svg xmlns="http://www.w3.org/2000/svg" width="32" height="30.5" viewBox="0 0 32 30.5">
  <metadata><?xpacket begin="﻿" id="W5M0MpCehiHzreSzNTczkc9d"?>
<x:xmpmeta xmlns:x="adobe:ns:meta/" x:xmptk="Adobe XMP Core 5.6-c140 79.160451, 2017/05/06-01:08:21        ">
   <rdf:RDF xmlns:rdf="http://www.w3.org/1999/02/22-rdf-syntax-ns#">
      <rdf:Description rdf:about=""/>
   </rdf:RDF>
</x:xmpmeta>
                                                                                                    
                                                                                                    
                                                                                                    
                                                                                                    
                                                                                                    
                                                                                                    
                                                                                                    
                                                                                                    
                                                                                                    
                                                                                                    
                                                                                                    
                                                                                                    
                                                                                                    
                                                                                                    
                                                                                                    
                                                                                                    
                                                                                                    
                                                                                                    
                                                                                                    
                                                                                                    
                           
<?xpacket end="w"?></metadata>
<defs>
    <style>
      .cls-1 {
        fill: #95e1d3;
        fill-rule: evenodd;
      }
    </style>
  </defs>
  <path id="HOME" class="cls-1" d="M822,572.5a1.5,1.5,0,0,1-2.52,1.094l0,0-13.439-13.438h0L806,560.122h0l-13.446,13.447h0a1.5,1.5,0,1,1-2.092-2.15l14.458-14.458A1.494,1.494,0,0,1,806,556.5h0l0.079,0h0.012l0.068,0.006h0a1.5,1.5,0,0,1,.933.468h0l5.9,5.9V561.5a1.5,1.5,0,0,1,3,0v4.379l5.6,5.6,0,0A1.489,1.489,0,0,1,822,572.5Zm-3,2.5v10.5a1.5,1.5,0,0,1-1.5,1.5h-3V575h-6v12h-14a1.5,1.5,0,0,1-1.5-1.5V575l13-13Zm-15.5,0h-6v6h6v-6Z" transform="translate(-790 -556.5)"/>
</svg>
