<svg xmlns="http://www.w3.org/2000/svg" width="32" height="32" viewBox="0 0 32 32">
  <metadata><?xpacket begin="﻿" id="W5M0MpCehiHzreSzNTczkc9d"?>
<x:xmpmeta xmlns:x="adobe:ns:meta/" x:xmptk="Adobe XMP Core 5.6-c140 79.160451, 2017/05/06-01:08:21        ">
   <rdf:RDF xmlns:rdf="http://www.w3.org/1999/02/22-rdf-syntax-ns#">
      <rdf:Description rdf:about=""/>
   </rdf:RDF>
</x:xmpmeta>
                                                                                                    
                                                                                                    
                                                                                                    
                                                                                                    
                                                                                                    
                                                                                                    
                                                                                                    
                                                                                                    
                                                                                                    
                                                                                                    
                                                                                                    
                                                                                                    
                                                                                                    
                                                                                                    
                                                                                                    
                                                                                                    
                                                                                                    
                                                                                                    
                                                                                                    
                                                                                                    
                           
<?xpacket end="w"?></metadata>
<defs>
    <style>
      .cls-1 {
        fill: #95e1d3;
        fill-rule: evenodd;
      }
    </style>
  </defs>
  <path id="BOOK_2" data-name="BOOK 2" class="cls-1" d="M422.065,581.889l-14.471,5.988a1.5,1.5,0,0,1-1.188,0l-14.471-5.988A1.5,1.5,0,0,1,391,580.5v-23a1.5,1.5,0,0,1,2.073-1.386h0l0,0,0.013,0L407,561.876l13.911-5.756,0.013,0,0,0h0A1.5,1.5,0,0,1,423,557.5v23A1.5,1.5,0,0,1,422.065,581.889ZM405.5,564.5L394,559.743V579.5l11.5,4.76V564.5Zm14.5-4.759L408.5,564.5v19.754L420,579.5V559.743Zm-9.121,6.891,5.5-2.5h0A1.48,1.48,0,0,1,417,564a1.5,1.5,0,0,1,.621,2.866h0l-5.5,2.5h0A1.5,1.5,0,0,1,410.879,566.634Zm0,5.5h0l5.5-2.5h0a1.5,1.5,0,0,1,1.242,2.731l-5.5,2.5h0A1.5,1.5,0,0,1,410.879,572.134Zm0,5.5h0l5.5-2.5h0a1.5,1.5,0,0,1,1.242,2.731h0l-5.5,2.5h0A1.5,1.5,0,0,1,410.879,577.634ZM397,564a1.487,1.487,0,0,1,.621.135h0l5.5,2.5h0a1.5,1.5,0,1,1-1.242,2.731h0l-5.5-2.5h0A1.5,1.5,0,0,1,397,564Zm0,5.5a1.5,1.5,0,0,1,.621.134h0l5.5,2.5h0a1.5,1.5,0,0,1-1.242,2.731h0l-5.5-2.5h0A1.5,1.5,0,0,1,397,569.5Zm0,5.5a1.5,1.5,0,0,1,.621.135h0l5.5,2.5h0a1.5,1.5,0,0,1-.621,2.866,1.48,1.48,0,0,1-.621-0.135h0l-5.5-2.5h0A1.5,1.5,0,0,1,397,575Z" transform="translate(-391 -556)"/>
</svg>
